<?xml version="1.0" standalone="no"?>
<!DOCTYPE svg PUBLIC "-//W3C//DTD SVG 20010904//EN"
 "http://www.w3.org/TR/2001/REC-SVG-20010904/DTD/svg10.dtd">
<svg version="1.0" xmlns="http://www.w3.org/2000/svg"
 width="512.000000pt" height="512.000000pt" viewBox="0 0 512.000000 512.000000"
 preserveAspectRatio="xMidYMid meet">

<g transform="translate(0.000000,512.000000) scale(0.100000,-0.100000)"
fill="#000000" stroke="none">
<path d="M1890 4509 c-901 -84 -1632 -785 -1755 -1684 -54 -392 16 -806 196
-1157 486 -945 1640 -1331 2594 -868 105 51 275 156 357 220 l27 21 44 -68
c111 -171 283 -291 483 -339 100 -24 267 -22 369 5 222 58 411 212 510 414
100 205 105 459 12 669 -116 262 -406 457 -680 458 -51 0 -58 2 -53 18 28 97
42 369 27 532 -78 853 -683 1545 -1521 1739 -174 41 -425 57 -610 40z"/>
</g>
</svg>
