<?xml version="1.0" standalone="no"?>
<!DOCTYPE svg PUBLIC "-//W3C//DTD SVG 20010904//EN"
 "http://www.w3.org/TR/2001/REC-SVG-20010904/DTD/svg10.dtd">
<svg version="1.0" xmlns="http://www.w3.org/2000/svg"
 width="512.000000pt" height="512.000000pt" viewBox="0 0 512.000000 512.000000"
 preserveAspectRatio="xMidYMid meet">

<g transform="translate(0.000000,512.000000) scale(0.100000,-0.100000)"
fill="#000000" stroke="none">
<path d="M2465 5113 c-360 -13 -694 -98 -1030 -263 -785 -385 -1313 -1135
-1415 -2010 -15 -122 -15 -438 0 -560 101 -866 625 -1616 1398 -2003 373 -186
723 -268 1142 -268 419 0 769 82 1142 268 772 386 1297 1138 1398 2003 15 122
15 438 0 560 -68 583 -326 1118 -735 1524 -508 506 -1190 774 -1900 749z
m-350 -705 l280 -204 0 -364 0 -364 -328 -238 -328 -239 -339 111 c-187 60
-342 110 -344 110 -7 0 -236 704 -236 724 0 10 71 88 158 175 223 224 431 368
695 482 110 48 110 48 136 29 14 -10 152 -110 306 -222z m1400 163 c112 -52
242 -130 365 -219 114 -82 420 -379 420 -408 0 -20 -229 -724 -236 -724 -2 0
-157 -50 -344 -110 l-339 -111 -328 239 -328 238 0 364 0 363 305 223 305 222
50 -20 c28 -11 86 -36 130 -57z m-2220 -1770 c186 -61 338 -111 340 -113 4 -5
243 -740 247 -760 2 -10 -86 -140 -207 -308 l-210 -290 -381 0 -382 0 -47 75
c-69 110 -158 304 -203 440 -67 201 -118 474 -110 585 l3 45 299 217 c165 120
303 218 307 218 4 0 159 -49 344 -109z m3181 -109 l299 -217 3 -45 c8 -111
-43 -384 -110 -585 -45 -136 -134 -330 -203 -440 l-47 -75 -382 0 -381 0 -210
290 c-121 168 -209 298 -207 308 4 20 243 755 247 760 4 5 668 221 681 221 5
1 145 -97 310 -217z m-1293 -1266 l210 -289 -118 -362 -118 -362 -91 -21
c-183 -44 -291 -56 -506 -56 -215 0 -323 12 -506 56 l-91 21 -118 362 -118
362 173 239 c96 131 191 263 212 292 l39 52 411 -2 411 -3 210 -289z"/>
</g>
</svg>
