<?xml version="1.0" standalone="no"?>
<!DOCTYPE svg PUBLIC "-//W3C//DTD SVG 20010904//EN"
 "http://www.w3.org/TR/2001/REC-SVG-20010904/DTD/svg10.dtd">
<svg version="1.0" xmlns="http://www.w3.org/2000/svg"
 width="512.000000pt" height="512.000000pt" viewBox="0 0 512.000000 512.000000"
 preserveAspectRatio="xMidYMid meet">

<g transform="translate(0.000000,512.000000) scale(0.100000,-0.100000)"
fill="#000000" stroke="none">
<path d="M3049 5065 c-191 -31 -360 -87 -528 -175 -203 -107 -353 -240 -587
-522 -149 -179 -217 -279 -284 -420 -234 -495 -224 -1070 25 -1475 38 -61 111
-141 334 -366 304 -306 366 -358 524 -432 337 -160 784 -169 1194 -24 186 66
338 155 528 309 325 265 470 430 588 666 344 688 166 1562 -418 2052 -220 185
-465 305 -750 369 -93 21 -143 25 -325 28 -154 3 -239 0 -301 -10z m293 -662
l108 -108 -112 -112 c-62 -62 -117 -113 -123 -113 -6 0 -57 47 -115 105 l-105
105 115 115 c63 63 117 115 120 115 2 0 53 -48 112 -107z m500 -500 l108 -108
-112 -112 c-62 -62 -117 -113 -123 -113 -6 0 -57 47 -115 105 l-105 105 115
115 c63 63 117 115 120 115 2 0 53 -48 112 -107z m-1002 -8 l105 -105 -118
-117 -117 -118 -105 105 c-58 58 -105 109 -105 115 0 13 212 225 225 225 6 0
57 -47 115 -105z m1500 -490 l105 -105 -118 -118 -117 -117 -107 108 -108 107
115 115 c63 63 117 115 120 115 3 0 52 -47 110 -105z m-2022 -242 l-118 -118
-105 105 c-58 58 -105 109 -105 115 0 5 51 60 112 122 l113 113 110 -110 110
-110 -117 -117z m1022 232 l105 -105 -118 -117 -117 -118 -110 110 -110 110
112 112 c62 62 117 113 123 113 6 0 57 -47 115 -105z m483 -717 l-118 -118
-107 107 -108 108 117 117 118 118 107 -107 108 -108 -117 -117z m-1005 -15
l-118 -118 -105 105 c-58 58 -105 109 -105 115 0 5 51 60 112 122 l113 113
110 -110 110 -110 -117 -117z m495 -495 l-118 -118 -107 107 -108 108 117 117
118 118 107 -107 108 -108 -117 -117z"/>
<path d="M1437 2682 c-2 -4 -24 -144 -48 -312 l-43 -305 -557 -560 c-510 -513
-559 -566 -588 -626 -124 -266 19 -569 304 -644 109 -28 223 -13 329 42 38 20
196 172 606 579 l555 553 310 46 c171 25 314 47 318 48 5 2 -43 28 -106 60
-63 31 -152 84 -197 117 l-82 61 -131 -20 -132 -21 -169 170 -170 169 19 133
18 133 -61 85 c-34 47 -86 133 -116 192 -31 59 -57 104 -59 100z"/>
</g>
</svg>
