<?xml version="1.0" standalone="no"?>
<!DOCTYPE svg PUBLIC "-//W3C//DTD SVG 20010904//EN"
 "http://www.w3.org/TR/2001/REC-SVG-20010904/DTD/svg10.dtd">
<svg version="1.0" xmlns="http://www.w3.org/2000/svg"
 width="512.000000pt" height="512.000000pt" viewBox="0 0 512.000000 512.000000"
 preserveAspectRatio="xMidYMid meet">

<g transform="translate(0.000000,512.000000) scale(0.100000,-0.100000)"
fill="#000000" stroke="none">
<path d="M2465 5113 c-646 -24 -1252 -289 -1711 -747 -414 -414 -668 -944
-735 -1531 -22 -201 -5 -642 29 -735 7 -18 10 -13 26 32 65 184 198 397 340
545 313 328 716 503 1161 503 274 0 509 -57 744 -181 144 -76 235 -141 376
-269 243 -221 453 -321 737 -351 334 -35 691 93 933 336 135 135 249 327 300
509 56 199 56 434 0 633 -32 112 -118 288 -186 378 -68 91 -199 221 -319 316
-486 387 -1081 585 -1695 562z"/>
<path d="M5041 2979 c-174 -483 -615 -874 -1121 -995 -246 -59 -528 -59 -760
0 -293 75 -492 186 -759 426 -205 184 -364 268 -601 317 -104 21 -313 23 -420
4 -289 -51 -554 -214 -731 -446 -191 -252 -274 -577 -224 -882 46 -285 185
-529 416 -734 423 -374 891 -585 1439 -649 122 -15 438 -15 560 0 587 68 1113
321 1526 734 414 414 665 937 734 1526 23 198 6 648 -28 740 -7 20 -12 14 -31
-41z"/>
</g>
</svg>
